# xmcd
#
# Track frame offsets:
#	150
#	12062
#	31087
#	43912
#	58787
#	75137
#	88337
#	116325
#	129162
#	146675
#	160012
#	168887
#	178425
#	190625
#	203187
#	216425
#
# Disc length: 3062 seconds
#
# Revision: 5
# Processed by: cddbd v1.5.2PL0 Copyright (c) Steve Scherf et al.
# Submitted via: EasyCDDAExtractor 12.0.0.1
#
DISCID=d10bf410
DTITLE=Ray Charles - Sus Mejores Exitos
DYEAR=2001
DGENRE=Oldies
TTITLE0=Together Again
TTITLE1=I Can't Stop Loving You
TTITLE2=Makin' Beleive
TTITLE3=Here We Go Again
TTITLE4=Georgia On My Mind
TTITLE5=Lets Go Stoned
TTITLE6=I've Got A Woman
TTITLE7=Unchain My Heart
TTITLE8=What'd I Say
TTITLE9=Eleanor Rigby
TTITLE10=Hit The Road Jack
TTITLE11=Yes Indeed
TTITLE12=Mess Around
TTITLE13=Yesterday
TTITLE14=Crying Time
TTITLE15=Take These Chains From My Heart
EXTD=
EXTT0=
EXTT1=
EXTT2=
EXTT3=
EXTT4=
EXTT5=
EXTT6=
EXTT7=
EXTT8=
EXTT9=
EXTT10=
EXTT11=
EXTT12=
EXTT13=
EXTT14=
EXTT15=
PLAYORDER=
